<svg width="120" height="133" viewBox="0 0 120 133" fill="none" xmlns="http://www.w3.org/2000/svg">
<path d="M60 21.5C92.2177 21.5 118.5 46.0362 118.5 76.5C118.5 106.964 92.2177 131.5 60 131.5C27.7823 131.5 1.5 106.964 1.5 76.5C1.5 46.0362 27.7823 21.5 60 21.5Z" stroke="#91C036" stroke-width="3"/>
<path d="M101.523 102.538L101.609 102.571C102.798 103.023 104.111 103.281 105.5 103.281C106.889 103.281 108.207 103.023 109.39 102.571L109.476 102.538H110.5C114.827 102.538 118.5 105.475 118.5 109.279V111.21C118.5 112.799 116.986 113.939 115.321 113.939H95.6787C94.0137 113.939 92.5 112.799 92.5 111.21V109.279C92.5 105.475 96.1732 102.538 100.5 102.538H101.523ZM105.5 89.1646C109.631 89.1646 113.142 91.9669 113.143 95.6079C113.143 99.2491 109.631 102.052 105.5 102.052C101.369 102.052 97.8574 99.2491 97.8574 95.6079C97.8576 91.9669 101.369 89.1646 105.5 89.1646Z" fill="#0B2D2F" stroke="#91C036"/>
<path d="M55.5273 15.2681L55.6152 15.3032C56.8028 15.7726 58.1138 16.0396 59.5 16.0396C60.8866 16.0396 62.2026 15.7722 63.3838 15.3032L63.4727 15.2681H64.5C68.8456 15.2681 72.4997 18.3286 72.5 22.2485V24.2554C72.4998 25.8752 71.0051 27.0698 69.3213 27.0698H49.6787C47.9949 27.0698 46.5002 25.8752 46.5 24.2554V22.2485C46.5003 18.3286 50.1544 15.2681 54.5 15.2681H55.5273ZM59.5 1.38037C63.6503 1.38037 67.1423 4.30103 67.1426 8.05225C67.1426 11.8037 63.6504 14.7251 59.5 14.7251C55.3496 14.7251 51.8574 11.8037 51.8574 8.05225C51.8577 4.30103 55.3497 1.38037 59.5 1.38037Z" fill="#0B2D2F" stroke="#91C036"/>
<path d="M11.5234 102.538L11.6094 102.571C12.7983 103.023 14.1113 103.281 15.5 103.281C16.8891 103.281 18.2071 103.023 19.3896 102.571L19.4756 102.538H20.5C24.8268 102.538 28.5 105.475 28.5 109.279V111.21C28.5 112.799 26.9863 113.939 25.3213 113.939H5.67871C4.01374 113.939 2.5 112.799 2.5 111.21V109.279C2.5 105.475 6.1732 102.538 10.5 102.538H11.5234ZM15.5 89.1646C19.6314 89.1646 23.1424 91.9669 23.1426 95.6079C23.1426 99.2491 19.6315 102.052 15.5 102.052C11.3685 102.052 7.85742 99.2491 7.85742 95.6079C7.85764 91.9669 11.3686 89.1646 15.5 89.1646Z" fill="#0B2D2F" stroke="#91C036"/>
<path d="M47.8887 52.6733H54.7275L47.7432 59.1157V59.1167C44.8077 61.831 44.5116 66.3776 47.0332 69.4526L47.2861 69.7456C49.9517 72.6743 54.4696 73.0215 57.5527 70.4634L57.8467 70.2065L57.8477 70.2056L60.4336 67.8169L74.5596 79.3687V79.3696C75.6749 80.2882 75.8472 81.9372 74.9346 83.0708L74.0137 84.2134L74.0127 84.2153C73.169 85.272 71.6754 85.4834 70.5742 84.7563L70.3604 84.5981L69.8379 84.1694L69.4482 83.8501L69.1318 84.2417L66.0898 88.0093L66.0889 88.0103C65.0458 89.305 63.1755 89.5403 61.8564 88.563L61.7305 88.4644L60.0068 86.9614L59.6533 86.6528L59.3232 86.9858L59.2861 87.0229L59.2695 87.0435C57.2865 89.4978 53.7095 89.8761 51.2715 87.8901L42.5098 79.9019L42.3662 79.772H40.9004V58.6255L46.0537 53.4429C46.5427 52.9503 47.2007 52.6733 47.8887 52.6733ZM89.5 58.939V82.9146H83.7998C82.3649 82.9144 81.2004 81.7461 81.2002 80.2915V58.939H89.5ZM36.7998 58.939V80.2817C36.7996 81.7364 35.6351 82.9047 34.2002 82.9048H28.5V58.939H36.7998ZM32.6504 76.6685C31.5203 76.6685 30.5996 77.5867 30.5996 78.73C30.5998 79.8613 31.5184 80.7915 32.6504 80.7915C33.7822 80.7913 34.7 79.8612 34.7002 78.73C34.7002 77.5986 33.7824 76.6687 32.6504 76.6685ZM85.3496 76.6685C84.2176 76.6687 83.2998 77.5986 83.2998 78.73C83.3 79.8612 84.2178 80.7913 85.3496 80.7915C86.4816 80.7915 87.4002 79.8613 87.4004 78.73C87.4004 77.5985 86.4817 76.6685 85.3496 76.6685ZM61.79 52.6733H70.1113C70.7154 52.6733 71.3001 52.8868 71.7559 53.2671L71.9434 53.4399L71.9463 53.4429L77.0898 58.6245V76.1235L63.4805 64.9937L65.5879 63.0522L65.5889 63.0503C66.4149 62.2819 66.4836 60.9848 65.7158 60.144H65.7168C65.0035 59.3525 63.8103 59.2616 62.9795 59.8794L62.8184 60.0122L62.8164 60.0142L55.123 67.1128C55.1186 67.1155 55.114 67.1186 55.1094 67.1216C55.0889 67.1348 55.0674 67.1532 55.0439 67.1743L55.043 67.1733C54.3518 67.7946 53.442 68.0385 52.5527 67.9692C51.7138 67.9039 50.9334 67.5624 50.4131 67.0503L50.3125 66.9458V66.9448C49.1104 65.6229 49.0892 63.5048 50.4893 62.1792L50.4951 62.1733L50.501 62.1685C50.5164 62.1529 50.5283 62.1382 50.5371 62.1274C50.5425 62.1208 50.5467 62.1143 50.5508 62.1089L60.0361 53.3608C60.516 52.9184 61.1415 52.6733 61.79 52.6733ZM50.5732 62.0786C50.5719 62.0804 50.5696 62.0826 50.5674 62.0854C50.5684 62.084 50.5695 62.0827 50.5703 62.0815C50.573 62.0776 50.5761 62.0744 50.5771 62.0728L50.5732 62.0786Z" fill="#0B2D2F" stroke="#91C036"/>
</svg>
