<svg width="97" height="98" viewBox="0 0 97 98" fill="none" xmlns="http://www.w3.org/2000/svg">
<path d="M71.8042 9.07228L51.0042 0.641682C50.3706 0.386002 49.6914 0.254395 49.0054 0.254395C48.3195 0.254395 47.6403 0.386002 47.0067 0.641682L26.2067 9.07228C24.2675 9.85211 23 11.6963 23 13.7407C23 34.6591 35.4042 49.1176 46.9958 53.8177C48.2742 54.334 49.715 54.334 50.9933 53.8177C60.2775 50.0555 75 37.0619 75 13.7407C75 11.6963 73.7325 9.85211 71.8042 9.07228ZM49.0108 47.284L49 7.13324L68.0558 14.8578C67.6983 30.8127 59.1617 42.3731 49.0108 47.284Z" fill="#91C036"/>
<path d="M4.84961 28.187C7.2452 28.187 9.20014 30.1704 9.2002 32.6509V55.8491L9.3125 55.9868L22.9229 72.7095V72.7085C23.9868 74.0309 25.8971 74.1595 27.1279 73.0278L27.2451 72.9136L29.1846 70.9282C30.1397 69.9506 30.3107 68.4368 29.6094 67.27L29.458 67.0415L23.6836 59.1606H23.6826C22.2813 57.2528 22.6112 54.5555 24.3789 53.0454L24.5547 52.9028C26.4059 51.4784 29.0241 51.8075 30.498 53.6157L30.6367 53.7954L39.3662 65.7085C41.8193 69.0664 43.1504 73.1356 43.1504 77.3267V94.7007C43.1504 95.8006 42.2713 96.6831 41.2246 96.6831H21.2646C20.4537 96.6831 19.7404 96.1761 19.4766 95.4155L19.4297 95.2593C19.1519 94.1514 18.7026 93.087 18.0576 92.1235L17.7686 91.7163L17.7676 91.7153L1.99023 70.8823L1.98535 70.8755L1.81055 70.6421C0.961106 69.4547 0.5 68.0121 0.5 66.5298V32.6509C0.500056 30.1705 2.45419 28.1872 4.84961 28.187ZM92.1504 28.187C94.5458 28.1872 96.4999 30.1705 96.5 32.6509V66.5298C96.5 68.0121 96.0389 69.4547 95.1895 70.6421L95.0146 70.8755L95.0098 70.8823L79.2324 91.7153L79.2314 91.7163C78.4296 92.7831 77.8879 93.993 77.5703 95.2593C77.355 96.1039 76.5873 96.6831 75.7354 96.6831H55.7754C54.7287 96.6831 53.8496 95.8006 53.8496 94.7007V77.3267C53.8496 73.2664 55.0988 69.3204 57.4072 66.0249L57.6338 65.7085L66.3633 53.7954C67.7616 51.8921 70.365 51.4593 72.2637 52.771L72.4453 52.9028C74.3057 54.3343 74.7371 57.0164 73.4473 58.9731L73.3174 59.1606H73.3164L67.542 67.0415C66.724 68.1581 66.7844 69.6809 67.6348 70.7261L67.8154 70.9282L69.7549 72.9136C70.9274 74.1136 72.8553 74.0611 73.9717 72.8325L74.0771 72.7095L87.6875 55.9868L87.7998 55.8491V32.6509C87.7999 30.1704 89.7548 28.187 92.1504 28.187Z" fill="#0B2D2F" stroke="#91C036"/>
</svg>
