<svg width="139" height="125" viewBox="0 0 139 125" fill="none" xmlns="http://www.w3.org/2000/svg">
<path d="M35.9147 36.6771C53.7653 22.9808 79.5622 23.8358 95.2495 38.005L95.5899 38.3127L101.456 33.8119L101.322 33.4938L99.3422 28.7707C98.6839 27.1997 99.5183 25.3707 101.256 24.6306L101.427 24.5628C103.214 23.8979 105.161 24.6189 105.894 26.1284L105.961 26.2766L108.493 32.3188L108.56 32.4762L108.717 32.5627L114.784 35.8923C116.35 36.7518 116.869 38.6095 115.937 40.1263L115.843 40.2723C115.631 40.5811 115.372 40.848 115.082 41.0706C113.989 41.909 112.457 42.1097 111.197 41.5429L110.948 41.4186L106.206 38.8162L105.887 38.6407L100.021 43.1415L100.293 43.5008C112.828 60.0881 109.27 83.4679 91.4199 97.1644C72.5176 111.668 44.7064 109.857 29.4196 93.1979C14.1331 76.5391 17.0124 51.1806 35.9147 36.6771ZM40.3464 41.5066C24.5168 53.6525 22.0504 74.9432 34.9258 88.9743C47.8014 103.005 71.1587 104.481 86.9882 92.335C101.741 81.0152 104.883 61.7588 94.8233 47.8309L94.4976 47.3795L87.3611 52.8552L87.5987 53.2075C94.5728 63.5969 92.1072 77.6673 81.205 86.0326C69.2493 95.206 51.6725 94.0531 42.0181 83.5325C32.3638 73.0116 34.1739 56.9825 46.1297 47.809C57.0321 39.4439 72.6138 39.6669 82.5919 47.7513L82.9301 48.0264L90.0665 42.5507L89.6376 42.1797C76.3844 30.7018 55.0994 30.187 40.3464 41.5066ZM50.5607 52.6378C41.6775 59.4538 40.2808 71.4152 47.5237 79.3082C54.7666 87.2009 67.8908 88.0197 76.7739 81.2038C84.5563 75.2324 86.5897 65.3194 82.1093 57.6438L81.8037 57.1193L74.5138 62.7127L74.6376 63.0261C76.2334 67.0692 74.9348 71.875 70.9907 74.9015C65.9814 78.745 58.638 78.249 54.616 73.8664C50.594 69.4834 51.3351 62.7846 56.3446 58.9408C60.289 55.9146 65.6895 55.579 69.7668 57.7181L70.0828 57.884L77.3726 52.2906L76.8609 51.9242C69.3724 46.5568 58.3432 46.6665 50.5607 52.6378Z" fill="#0B2D2F" stroke="#91C036"/>
</svg>
