<svg width="114" height="142" viewBox="0 0 114 142" fill="none" xmlns="http://www.w3.org/2000/svg">
<path d="M53.5098 130.795L53.6035 130.835C54.49 131.211 55.467 131.424 56.5 131.424C57.5334 131.424 58.5142 131.211 59.3955 130.835L59.4902 130.795H60.2998C63.6862 130.795 66.5 133.35 66.5 136.577V138.211C66.4998 139.564 65.3271 140.597 63.9639 140.597H49.0361C47.6729 140.597 46.5002 139.564 46.5 138.211V136.577L46.5078 136.276C46.6762 133.193 49.4197 130.795 52.7002 130.795H53.5098ZM56.5 119.48C59.7379 119.48 62.4287 121.92 62.4287 125.009C62.4287 128.099 59.7379 130.539 56.5 130.539C53.2621 130.539 50.5713 128.099 50.5713 125.009C50.5713 121.92 53.2621 119.48 56.5 119.48Z" fill="#0B2D2F" stroke="#91C036"/>
<path d="M95.5098 107.021L95.6035 107.061C96.49 107.436 97.467 107.649 98.5 107.649C99.5334 107.649 100.514 107.436 101.396 107.061L101.49 107.021H102.3C105.686 107.021 108.5 109.575 108.5 112.802V114.437C108.5 115.789 107.327 116.822 105.964 116.822H91.0361C89.6729 116.822 88.5002 115.789 88.5 114.437V112.802L88.5078 112.501C88.6762 109.418 91.4197 107.021 94.7002 107.021H95.5098ZM98.5 95.7051C101.738 95.7051 104.429 98.1451 104.429 101.234C104.429 104.324 101.738 106.764 98.5 106.764C95.2621 106.764 92.5713 104.324 92.5713 101.234C92.5713 98.1451 95.2621 95.7051 98.5 95.7051Z" fill="#0B2D2F" stroke="#91C036"/>
<path d="M100.51 51.2412L100.604 51.2812C101.49 51.6569 102.467 51.8701 103.5 51.8701C104.533 51.8701 105.514 51.6564 106.396 51.2812L106.49 51.2412H107.3C110.686 51.2412 113.5 53.7956 113.5 57.0225V58.6572C113.5 60.0097 112.327 61.043 110.964 61.043H96.0361C94.6729 61.043 93.5002 60.0097 93.5 58.6572V57.0225L93.5078 56.7217C93.6762 53.6383 96.4197 51.2412 99.7002 51.2412H100.51ZM103.5 39.9258C106.738 39.9258 109.429 42.3658 109.429 45.4551C109.429 48.5444 106.738 50.9844 103.5 50.9844C100.262 50.9844 97.5713 48.5444 97.5713 45.4551C97.5713 42.3658 100.262 39.9258 103.5 39.9258Z" fill="#0B2D2F" stroke="#91C036"/>
<path d="M53.5098 11.9214L53.6035 11.9614C54.49 12.337 55.467 12.5503 56.5 12.5503C57.5334 12.5503 58.5142 12.3365 59.3955 11.9614L59.4902 11.9214H60.2998C63.6862 11.9214 66.5 14.4758 66.5 17.7026V19.3374C66.4998 20.6899 65.3271 21.7231 63.9639 21.7231H49.0361C47.6729 21.7231 46.5002 20.6899 46.5 19.3374V17.7026L46.5078 17.4019C46.6762 14.3185 49.4197 11.9214 52.7002 11.9214H53.5098ZM56.5 0.605957C59.7379 0.605957 62.4287 3.04593 62.4287 6.13525C62.4287 9.22457 59.7379 11.6646 56.5 11.6646C53.2621 11.6646 50.5713 9.22457 50.5713 6.13525C50.5713 3.04593 53.2621 0.605957 56.5 0.605957Z" fill="#0B2D2F" stroke="#91C036"/>
<path d="M7.50977 51.2412L7.60352 51.2812C8.48996 51.6569 9.46699 51.8701 10.5 51.8701C11.5334 51.8701 12.5142 51.6564 13.3955 51.2812L13.4902 51.2412H14.2998C17.6862 51.2412 20.5 53.7956 20.5 57.0225V58.6572C20.4998 60.0097 19.3271 61.043 17.9639 61.043H3.03613C1.67286 61.043 0.500158 60.0097 0.5 58.6572V57.0225L0.507812 56.7217C0.676182 53.6383 3.41975 51.2412 6.7002 51.2412H7.50977ZM10.5 39.9258C13.7379 39.9258 16.4287 42.3658 16.4287 45.4551C16.4287 48.5444 13.7379 50.9844 10.5 50.9844C7.26208 50.9844 4.57129 48.5444 4.57129 45.4551C4.57129 42.3658 7.26208 39.9258 10.5 39.9258Z" fill="#0B2D2F" stroke="#91C036"/>
<path d="M7.50977 107.021L7.60352 107.061C8.48996 107.436 9.46699 107.649 10.5 107.649C11.5334 107.649 12.5142 107.436 13.3955 107.061L13.4902 107.021H14.2998C17.6862 107.021 20.5 109.575 20.5 112.802V114.437C20.4998 115.789 19.3271 116.822 17.9639 116.822H3.03613C1.67286 116.822 0.500158 115.789 0.5 114.437V112.802L0.507812 112.501C0.676182 109.418 3.41975 107.021 6.7002 107.021H7.50977ZM10.5 95.7051C13.7379 95.7051 16.4287 98.1451 16.4287 101.234C16.4287 104.324 13.7379 106.764 10.5 106.764C7.26208 106.764 4.57129 104.324 4.57129 101.234C4.57129 98.1451 7.26208 95.7051 10.5 95.7051Z" fill="#0B2D2F" stroke="#91C036"/>
<path d="M34.7188 49.7271H38.1562C38.7674 49.7271 39.3749 50.3189 39.375 51.1987V66.9722C39.375 67.8521 38.7675 68.4438 38.1562 68.4438H34.7188C34.1075 68.4438 33.5 67.8521 33.5 66.9722V51.1987C33.5001 50.3189 34.1076 49.7271 34.7188 49.7271ZM45.0303 45.7837H48.4678C49.0789 45.7838 49.6865 46.3756 49.6865 47.2554V66.9722C49.6865 67.852 49.0789 68.4438 48.4678 68.4438H45.0303C44.4191 68.4438 43.8115 67.8521 43.8115 66.9722V47.2554C43.8116 46.3755 44.4191 45.7837 45.0303 45.7837ZM65.6533 45.7837H69.0908C69.7019 45.7839 70.3095 46.3757 70.3096 47.2554V61.0659C69.3833 60.753 68.4039 60.5572 67.3721 60.5571H64.4346V47.2554C64.4346 46.3755 65.0421 45.7837 65.6533 45.7837ZM55.3418 41.8403H58.7793C59.3904 41.8405 59.998 42.4322 59.998 43.312V60.5571H55.3389C54.915 60.5571 54.509 60.6188 54.123 60.7222V43.312C54.1231 42.4321 54.7306 41.8403 55.3418 41.8403ZM40.374 96.3608L40.251 96.2192L37.4043 92.9526C34.91 90.0912 33.5 86.199 33.5 82.1274V73.2212C33.8873 73.3254 34.2938 73.3872 34.7188 73.3872H38.1562C39.4655 73.3872 40.6499 72.868 41.5938 72.0376C42.5369 72.867 43.7213 73.3862 45.0312 73.3862H48.4688C49.2245 73.3862 49.9314 73.2004 50.5762 72.897C51.354 74.5414 52.6039 75.8647 54.1338 76.6235C52.6938 78.1791 51.4189 80.0924 50.1094 82.2866L49.4795 83.3579L48.8008 84.5249C48.7308 84.6453 48.6781 84.7751 48.6426 84.9097L48.6133 85.0464C48.5895 85.184 48.5836 85.3244 48.5957 85.4634L48.6133 85.6021C48.6373 85.7395 48.6793 85.8734 48.7383 85.9995L48.8027 86.1235C48.8964 86.2838 49.02 86.4253 49.168 86.5386V86.5396L50.5977 87.6343C50.7461 87.7479 50.917 87.8299 51.1006 87.8716C51.2384 87.9029 51.38 87.9099 51.5195 87.894L51.6592 87.8706C51.7968 87.839 51.9269 87.7846 52.0459 87.7114L52.1611 87.6323C52.2722 87.5469 52.3693 87.445 52.4502 87.3315L52.5254 87.2144L53.2031 86.0474C54.9194 83.0938 56.2706 80.9908 57.7637 79.5845C59.1366 78.2914 60.6382 77.5813 62.6982 77.3872L63.1182 77.355C63.879 77.3102 64.4355 76.6257 64.4355 75.8696V73.8735C64.4355 73.4769 64.292 73.0741 63.9277 72.7847C63.581 72.5092 63.0979 72.3872 62.5176 72.3872H58.7295C56.2463 72.3871 54.1201 70.051 54.1201 67.0229V66.9536C54.1203 66.0835 54.7216 65.5005 55.3281 65.5005H67.374C70.8306 65.5006 73.7469 68.7407 73.748 72.8862L73.75 83.7583L73.7383 84.3237C73.6247 86.955 72.7193 89.4522 71.1895 91.3911L70.8525 91.7983L66.9951 96.2251L66.8721 96.3657V103.935H40.374V96.3608Z" fill="#0B2D2F" stroke="#91C036"/>
<line x1="57.5" y1="21" x2="57.5" y2="42" stroke="#91C036"/>
<line x1="93.2867" y1="59.4096" x2="73.2867" y2="73.4096" stroke="#91C036"/>
<line x1="56.5" y1="120" x2="56.5" y2="104" stroke="#91C036"/>
<line x1="15.7073" y1="103.595" x2="33.7073" y2="90.5947" stroke="#91C036"/>
<line x1="93.7275" y1="104.419" x2="73.7275" y2="91.4192" stroke="#91C036"/>
<line x1="20.3972" y1="59.6963" x2="33.3972" y2="76.6963" stroke="#91C036"/>
</svg>
